<?xml version="1.0" encoding="utf-8"?>
<!-- Generator: Adobe Illustrator 22.0.0, SVG Export Plug-In . SVG Version: 6.00 Build 0)  -->
<svg version="1.1" xmlns="http://www.w3.org/2000/svg" xmlns:xlink="http://www.w3.org/1999/xlink" x="0px" y="0px"
	 viewBox="0 0 183.4 58.4" style="enable-background:new 0 0 183.4 58.4;" xml:space="preserve">
<style type="text/css">
	.st0{fill:#293133;}
	.st1{fill:#FDE3A7;stroke:#000000;stroke-width:1.28;stroke-miterlimit:10;}
	.st2{fill:#D1B573;}
	.st3{fill:#343F41;}
	.st4{fill:#526266;}
	.st5{fill:url(#SVGID_1_);}
	.st6{fill:url(#SVGID_2_);}
	.st7{stroke:#000000;stroke-width:0.48;stroke-miterlimit:10;}
	.st8{fill:#536466;}
	.st9{fill:#F75C4C;stroke:#000000;stroke-width:1.6;stroke-miterlimit:10;}
	.st10{fill:#F75C4C;stroke:#000000;stroke-width:1.92;stroke-miterlimit:10;}
	.st11{fill:#373F4F;}
</style>
<g id="Layer_1">
	<g id="Layer_3">
	</g>
</g>
<g id="Layer_4">
	<g>
		<path class="st0" d="M34.8,17.3l3.3,6l-1,0.2c0,0-2.9-5.3-2.8-5.4C34.4,18.1,34.8,17.3,34.8,17.3"/>
		<path class="st0" d="M11.8,8.1c0,0-0.8,1.5-0.6,4.3c0.2,2.9,1.5,3.7,1.5,3.7s2.8,2.3,6.7,1.7c6.4-1,14.9-5.3,15.9,0.8
			c1.5,8.5-1.5-1.4-1.5-1.4h-3.3l-6.3,2l-4.6,0.9L17,20.5l-3.9-0.8l-0.7,3.9h-1.7l-1.3-4.5l0.6-2.5c0,0-1.1-4.4-1.2-4.7
			c-0.1-0.2,0-4.3,0-4.5c0-0.2,2.2-3.2,2.2-3.2l0.4,1.9L11.8,8.1"/>
		<path class="st0" d="M3.7,8.3"/>
		<path class="st1" d="M39.4,33.3c0,0.8-0.8,1.7-1.1,2.5c-1.9,5.5-8.4,11.5-13.6,11.5c-5.1,0-11.1-5.9-12.9-11.3
			c-0.3-0.9-1.1-1.9-1.1-2.7c0-3.3-1.3-10.4,0.5-14.9c1.8-4.6,10.8-7.5,13.5-7.5c3.1,0,11.3,2,14.1,7.1c0.7,1.3,0.4,2.8,0.6,4.5
			C39.8,26.6,39.4,31.2,39.4,33.3z"/>
		<path class="st2" d="M10.7,33.3l5.6,7.7l2.4-3.6c0,0-1.6-0.6-2.4-2.2c0,0,7.4,0.7,7.4-6.7L23.5,26l-13.1,1.6L10.7,33.3"/>
		<polyline class="st2" points="23.3,28.3 10.7,32.3 10.7,33.3 		"/>
		<path class="st2" d="M14.9,25.3l0.5-2.8c0,0,4.7,1.5,15.5-3.9c0,0,2.1-0.7,3.7,0.6L33.2,17l-2.5-0.3l-3.6,1.2l-5.7,1.9l-3.8,0.4
			l-4.5-0.4l-1,5.6H14.9z"/>
		<path class="st2" d="M38,31.2c0,0,0.1,3.7-7.3,3.4C25,34.4,25,28.1,25,28.1s0-0.8-0.5-0.8c-0.6,0-0.6,0.6-0.6,0.6h-0.5
			c0,0,0.1-2.4,0.3-2.5c0.2-0.1,15.3,0,15.3,0L38,31.2z"/>
		<g>
			<path class="st3" d="M25,54.2c-5.7,0-10-2.7-13-8.4c-0.8-1.5-0.9-5.4-0.9-6.7l0-4.9c1.5,2.6,3.2,4.3,4.1,5.2
				c0.2,0.2,0.4,0.4,0.5,0.5l1,1.4l0.4-1.7c0-0.1,0.3-0.6,1.4-2c0.1-0.2,0.2-0.3,0.2-0.3c0.3-0.6,1.9-1,3.6-1.5l0.6-0.2
				c0.7,0.4,1.3,0.6,2,0.7l0.1,0l0.1,0c0.7-0.1,1.3-0.3,2-0.7l0.6,0.2c1.7,0.5,3.2,1,3.6,1.5c0,0,0.1,0.1,0.2,0.3
				c1.1,1.4,1.3,1.9,1.4,2l0.4,1.6l1-1.3c0.1-0.1,0.3-0.3,0.5-0.5c0.9-0.9,2.6-2.6,4.1-5.2l0,4.9c0,1.3-0.1,5.2-0.9,6.7
				C35,51.4,30.7,54.2,25,54.2z M25,41.3c0.5,0,0.8,0.2,1.2,0.5c0.3,0.2,0.6,0.4,1.1,0.4c1.1,0,1.8-0.3,2.4-1l0.3-0.3l0-0.4
				c-0.2-1.4-1.6-1.5-3.3-1.5c-0.4,0-0.7-0.1-1.4-0.2l-0.2,0l-0.2,0c-0.7,0.2-1,0.2-1.4,0.2c-1.7,0.1-3.1,0.1-3.3,1.5l0,0.4l0.3,0.3
				c0.6,0.7,1.3,0.9,2.4,1c0,0,0,0,0,0c0.5,0,0.8-0.2,1.1-0.4C24.2,41.5,24.5,41.3,25,41.3z"/>
			<path d="M22.8,36.4c0.6,0.3,1.2,0.5,1.9,0.6l0.3,0.1l0.3-0.1c0.7-0.1,1.3-0.3,1.9-0.6c0.1,0,0.2,0.1,0.3,0.1
				c1.2,0.4,2.8,0.8,3.1,1.2c0,0,0.1,0.2,0.3,0.4c0.9,1.2,1.2,1.6,1.2,1.8l0.8,3.3l2-2.8c0.1-0.1,0.3-0.3,0.4-0.4
				c0.6-0.6,1.6-1.7,2.7-3.1l0,2.2c-0.1,3.3-0.4,5.5-0.8,6.4c-2.9,5.4-6.8,7.9-12.3,7.9c-5.5,0-9.4-2.5-12.3-7.9
				c-0.5-0.9-0.8-3-0.8-6.3l0-2.3c1.1,1.4,2.1,2.5,2.7,3.1c0.2,0.2,0.4,0.4,0.4,0.4l2,2.8l0.8-3.3c0.1-0.2,0.3-0.6,1.2-1.8
				c0.2-0.2,0.3-0.3,0.3-0.4c0.3-0.4,1.9-0.8,3.1-1.2C22.6,36.5,22.7,36.5,22.8,36.4 M22.7,43L22.7,43c0.7,0,1.2-0.3,1.6-0.6
				c0.3-0.2,0.5-0.3,0.7-0.3c0.2,0,0.4,0.1,0.7,0.3c0.4,0.2,0.9,0.6,1.5,0.6l0,0l0,0c1.3,0,2.2-0.4,2.9-1.2l0.5-0.5l-0.1-0.8
				c-0.3-2.1-2.4-2.2-4-2.2c-0.3,0-0.6,0-1.3-0.2L25,38l-0.4,0.1c-0.7,0.2-1,0.2-1.3,0.2c-1.7,0.1-3.8,0.2-4,2.2l-0.1,0.8l0.5,0.5
				C20.5,42.6,21.4,43,22.7,43L22.7,43 M39.7,30.6c-2,5.3-5.5,8.1-6,8.8c-0.2-0.7-1.6-2.4-1.7-2.5c-0.6-1-2.5-1.4-5-2.2
				c-0.7,0.4-1.3,0.6-2,0.8c-0.7-0.1-1.3-0.4-2-0.8c-2.5,0.8-4.4,1.2-5,2.2c-0.1,0.1-1.5,1.9-1.7,2.5c-0.5-0.7-4.1-3.5-6-8.8
				c0,2.3,0,7.6,0,8.5c0.1,3.1,0.3,5.7,1,7.1c3.8,7.1,9,8.8,13.7,8.8c4.7,0,9.9-1.7,13.7-8.8c0.7-1.3,1-4,1-7.1
				C39.7,38.3,39.7,33,39.7,30.6L39.7,30.6z M22.7,41.4C22.7,41.4,22.7,41.4,22.7,41.4c-0.9,0-1.4-0.3-1.8-0.7
				c0.1-0.6,0.4-0.7,2.5-0.8c0.4,0,0.8-0.1,1.6-0.2c0.8,0.2,1.2,0.2,1.6,0.2c2.1,0.1,2.4,0.3,2.5,0.8c-0.5,0.5-0.9,0.7-1.8,0.7
				c0,0,0,0,0,0c-0.5,0-1-0.9-2.3-0.9C23.8,40.5,23.2,41.4,22.7,41.4L22.7,41.4z"/>
		</g>
		<path class="st0" d="M33.2,51.3c0,0-15.5,5.9-19.9-10.3l3.8,2.2l-2-2.8l-3.1-3.6c0,0-0.2,6.2,0.7,8.3c0.9,2.1,4.1,7.4,10.1,8.1
			S30.6,53.8,33.2,51.3z"/>
		<path class="st4" d="M38,36.4c0,0,0.3,6.4-4.6,14.1l2.8-1.3l2.6-3.8l0.6-9.6l-1.3-0.6L38,36.4z"/>
		<path class="st0" d="M19.2,41.3c0,0,0.2,0.3,0.3,0.3c0.2,0.2,0.4,0.4,0.7,0.6c0.7,0.5,1.6,0.9,2.8,0.8c0.6-0.1,1.2-0.5,1.4-0.7
			c0.2-0.1,0.4-0.2,0.5-0.2c0.2,0,0.4,0.1,0.6,0.3c0.1,0.1,0.9,0.6,1.7,0.6c1.6,0,2.7-0.9,3.2-1.4c0.2-0.2,0.3-0.3,0.3-0.3
			s-1,3.8-5.8,1.8C25,43,21.4,45.4,19.2,41.3z"/>
		<path class="st0" d="M32.9,43.1l-2.6-2.3l-2.2-1.5l-6.4-0.2l-1.9,2l-2.7,2l0.5-4c0,0,2.1-2,2.3-2c0.1-0.1,2.4-1,2.5-1.1
			c0.1,0,2,0.1,2.5,0.1c0.5,0,1.6-0.1,1.9-0.1c0.2-0.1,1.8,0.1,1.8,0.1s2.3,0.6,2.6,0.9c0.3,0.3,0.6,0.8,1,1.7
			c0.4,0.9,1.1,1.6,1,2.4C32.9,42,32.9,43.1,32.9,43.1z"/>
		<path class="st4" d="M32.9,43.1c0,0-0.3-5.6-7.9-5.6c0,0-6.9-0.5-7.9,5.6l-0.2-2.6l3-3.5l3.1-1.6l1.8,0.7l2.6-0.4l3.1,0.8l1.6,1.4
			l1.3,2.1L32.9,43.1z"/>
		<g>
			<path d="M22.8,36.4c0.6,0.3,1.2,0.5,1.9,0.6l0.3,0.1l0.3-0.1c0.7-0.1,1.3-0.3,1.9-0.6c0.1,0,0.2,0.1,0.3,0.1
				c1.2,0.4,2.8,0.8,3.1,1.2c0,0,0.1,0.2,0.3,0.4c0.9,1.2,1.2,1.6,1.2,1.8l0.8,3.3l2-2.8c0.1-0.1,0.3-0.3,0.4-0.4
				c0.6-0.6,1.6-1.7,2.7-3.1l0,2.2c-0.1,3.3-0.4,5.5-0.8,6.4c-2.9,5.4-6.8,7.9-12.3,7.9c-5.5,0-9.4-2.5-12.3-7.9
				c-0.5-0.9-0.8-3-0.8-6.3l0-2.3c1.1,1.4,2.1,2.5,2.7,3.1c0.2,0.2,0.4,0.4,0.4,0.4l2,2.8l0.8-3.3c0.1-0.2,0.3-0.6,1.2-1.8
				c0.2-0.2,0.3-0.3,0.3-0.4c0.3-0.4,1.9-0.8,3.1-1.2C22.6,36.5,22.7,36.5,22.8,36.4 M22.7,43L22.7,43c0.7,0,1.2-0.3,1.6-0.6
				c0.3-0.2,0.5-0.3,0.7-0.3c0.2,0,0.4,0.1,0.7,0.3c0.4,0.2,0.9,0.6,1.5,0.6l0,0l0,0c1.3,0,2.2-0.4,2.9-1.2l0.5-0.5l-0.1-0.8
				c-0.3-2.1-2.4-2.2-4-2.2c-0.3,0-0.6,0-1.3-0.2L25,38l-0.4,0.1c-0.7,0.2-1,0.2-1.3,0.2c-1.7,0.1-3.8,0.2-4,2.2l-0.1,0.8l0.5,0.5
				C20.5,42.6,21.4,43,22.7,43L22.7,43 M39.7,30.6c-2,5.3-5.5,8.1-6,8.8c-0.2-0.7-1.6-2.4-1.7-2.5c-0.6-1-2.5-1.4-5-2.2
				c-0.7,0.4-1.3,0.6-2,0.8c-0.7-0.1-1.3-0.4-2-0.8c-2.5,0.8-4.4,1.2-5,2.2c-0.1,0.1-1.5,1.9-1.7,2.5c-0.5-0.7-4.1-3.5-6-8.8
				c0,2.3,0,7.6,0,8.5c0.1,3.1,0.3,5.7,1,7.1c3.8,7.1,9,8.8,13.7,8.8c4.7,0,9.9-1.7,13.7-8.8c0.7-1.3,1-4,1-7.1
				C39.7,38.3,39.7,33,39.7,30.6L39.7,30.6z M22.7,41.4C22.7,41.4,22.7,41.4,22.7,41.4c-0.9,0-1.4-0.3-1.8-0.7
				c0.1-0.6,0.4-0.7,2.5-0.8c0.4,0,0.8-0.1,1.6-0.2c0.8,0.2,1.2,0.2,1.6,0.2c2.1,0.1,2.4,0.3,2.5,0.8c-0.5,0.5-0.9,0.7-1.8,0.7
				c0,0,0,0,0,0c-0.5,0-1-0.9-2.3-0.9C23.8,40.5,23.2,41.4,22.7,41.4L22.7,41.4z"/>
		</g>
		<g>
			<linearGradient id="SVGID_1_" gradientUnits="userSpaceOnUse" x1="18.5046" y1="33.3608" x2="17.0344" y2="25.0224">
				<stop  offset="0" style="stop-color:#141A1D"/>
				<stop  offset="1" style="stop-color:#273033"/>
			</linearGradient>
			<path class="st5" d="M20.9,25.5c-1.3-0.2-5.4-0.3-7.6,0.2c-0.4,0.1-1.6,0.9-1.1,4c0.5,3.7,4.6,3.6,6.3,3.5
				c1.7-0.1,4.4-0.5,4.6-3.9C23.4,25.4,22.3,25.7,20.9,25.5z"/>
			<linearGradient id="SVGID_2_" gradientUnits="userSpaceOnUse" x1="33.0646" y1="33.3608" x2="31.5944" y2="25.0224">
				<stop  offset="0" style="stop-color:#141A1D"/>
				<stop  offset="1" style="stop-color:#273033"/>
			</linearGradient>
			<path class="st6" d="M35.5,25.5c-1.3-0.2-5.4-0.3-7.6,0.2c-0.4,0.1-1.6,0.9-1.1,4c0.5,3.7,4.6,3.6,6.3,3.5
				c1.7-0.1,4.4-0.5,4.6-3.9C38,25.4,36.8,25.7,35.5,25.5z"/>
		</g>
		<path class="st7" d="M11.1,24.8c0,0-0.1,2.4,0.1,4.6c0,0,0.7,0.3,1,1.1c0.3,0.8,0.4,3.3,4.3,3.4c4.1,0.1,6.3-0.2,7-4.6
			c0,0,0.3-2.6,1.6-2.5c1.1,0,1.4,2.5,1.4,2.5c0.7,4.6,3.1,4.7,7.2,4.6c3.7-0.1,4.2-2.6,4.5-3.4c0.3-0.8,0.9-1.1,0.9-1.1
			c0.1-2.2,0.1-4.6,0.1-4.6C33.7,24.8,23.7,24.8,11.1,24.8z M22.5,29.1c-0.5,2.2-1.3,3.7-3.8,3.8c-2.5,0.1-5.4,0.4-6-3.5
			c-0.2-1-0.6-3.6,1.9-3.8c2.6-0.2,5.6,0,6.4,0.2C21.9,26.1,23.1,26.5,22.5,29.1z M37.3,29.3c-0.2,3.2-2.8,3.6-4.3,3.7
			c-1.6,0.1-5.4,0.2-5.8-3.3c-0.4-2.9,0.7-3.7,1.1-3.8c2-0.5,5.8-0.4,7.1-0.2C36.5,25.8,37.6,25.6,37.3,29.3z"/>
		<path class="st8" d="M22.3,27.4c0,0,0-1.5-3.1-1.5c-0.8,0-1.5,0-2.1,0c-1.6,0-2.6,0-3.2,0.2C14,26,20,26.1,22.3,27.4z"/>
		<path class="st8" d="M37.1,27.4c0,0-0.1-1.2-1-1.4c-0.5-0.1-1-0.1-1.9-0.2c-0.8-0.1-1,0-1.6,0c-1.6,0-3.1,0.1-3.8,0.3
			C28.7,26,34.8,26.1,37.1,27.4z"/>
		<path class="st9" d="M38.8,23.2v12.3c0,0,5.7-0.1,5.7-6.1S38.8,23.2,38.8,23.2z"/>
		<path class="st10" d="M11.2,23.2v12.3c0,0-5.7-0.1-5.7-6.1S11.2,23.2,11.2,23.2z"/>
		<g>
			<path class="st3" d="M10.8,23.7c-0.3-0.5-2.5-4.8-0.7-7c-0.9-1.6-2.9-6.4,0.1-11.2l0.8-1.3l0.6,1.5c0.8-1.6,2.2-3.2,4.5-3.2
				c0.1,0,0.2,0,0.3,0l1.7,0.1L17.1,4c-0.2,0.2-1.6,1.8,0.1,3.5c0.5,0.5,1.1,0.8,2.1,0.8c0.8,0,1.8-0.2,3-0.4
				c1.7-0.3,3.9-0.7,6.5-0.7c2.6,0,4.4,0.7,5.5,1.9c0.5,0.6,0.8,1.3,0.9,1.9c0.6-0.2,1.4-0.4,2.2-0.4c1.1,0,2,0.3,2.7,1
				c2.1,2.1,1.8,9.3-1.3,12.4l-0.3,0.3L36.9,24l-2.6-5.9c0-0.1-0.6-1.6-2.8-1.6c-0.7,0-1.4,0.1-2.2,0.4c-1,0.3-2.1,0.8-3.2,1.3
				c-2.5,1.1-5.3,2.3-8.2,2.3c-1.6,0-3.1-0.4-4.5-1.1L12.6,24l-1.5,0.2L10.8,23.7z"/>
			<path d="M16.2,3.4c0.1,0,0.1,0,0.2,0c0,0-2.2,2.3,0.1,4.6c0.7,0.7,1.6,1,2.6,1c2.2,0,5.1-1.1,9.5-1.1c6.4,0,5.6,4.2,5.6,4.2
				s1.5-0.8,2.9-0.8c0.7,0,1.5,0.2,2.1,0.8c1.8,1.8,1.5,8.5-1.3,11.3l-0.6-0.1L35,17.8c0,0-0.8-2-3.5-2c-0.7,0-1.5,0.1-2.4,0.4
				c-3.4,1.1-7.2,3.6-11.2,3.6c-1.7,0-3.4-0.4-5.1-1.5l-0.9,5l-0.4,0c0,0-2.6-4.9-0.4-6.5c0,0-3.6-5.5-0.2-10.9l0.9,2.1
				C11.8,8.1,12.5,3.4,16.2,3.4 M16.2,1.8L16.2,1.8c-2,0-3.4,1-4.4,2.2l-0.6-1.5L9.6,5.2c-3,4.7-1.4,9.4-0.4,11.5
				c-1.6,2.6,0.6,6.9,0.9,7.4l0.5,1l1.1-0.1l0.4,0l1.2-0.1l0.2-1.2l0.5-2.9c1.3,0.5,2.6,0.7,3.9,0.7c3.1,0,6-1.3,8.5-2.4
				c1.1-0.5,2.2-1,3.2-1.3c0.7-0.2,1.4-0.4,1.9-0.4c1.6,0,2,1,2,1l0,0l0,0l2.4,5.5l0.4,0.8l0.9,0.1l0.6,0.1l0.8,0.1l0.6-0.6
				c3.4-3.4,3.7-11.1,1.3-13.5c-0.8-0.8-1.9-1.3-3.2-1.3c-0.6,0-1.1,0.1-1.6,0.2c-0.2-0.5-0.4-1-0.8-1.4c-1.2-1.5-3.3-2.2-6.1-2.2
				c-2.7,0-4.9,0.4-6.6,0.7C21,7.2,20,7.4,19.2,7.4c-0.8,0-1.2-0.2-1.5-0.5c-1-1-0.5-2-0.1-2.4L19.8,2l-3.3-0.2
				C16.4,1.8,16.3,1.8,16.2,1.8L16.2,1.8z"/>
		</g>
		<path class="st4" d="M34.3,12.1c0,0,8.6-1,3.8,11.3l1.4-0.9l1.6-5.8l-0.6-4.6l-1.7-1.2h-2.3h-1.9L34.3,12.1z"/>
		<path class="st4" d="M16.5,3.4c0,0-2.5,2.5-0.3,5.3C18.9,12,26,8.4,30.3,9.6c3.8,1,4,2.5,4,2.5l0.9-1.5l-1.9-2.6l-5.4-1.4L24,7.8
			l-4.8,0.3L17,7.4c0,0-0.8-1.5-0.7-1.8C16.4,5.4,16.5,3.4,16.5,3.4"/>
		<g>
			<path d="M16.2,3.4c0.1,0,0.1,0,0.2,0c0,0-2.2,2.3,0.1,4.6c0.7,0.7,1.6,1,2.6,1c2.2,0,5.1-1.1,9.5-1.1c6.4,0,5.6,4.2,5.6,4.2
				s1.5-0.8,2.9-0.8c0.7,0,1.5,0.2,2.1,0.8c1.8,1.8,1.5,8.5-1.3,11.3l-0.6-0.1L35,17.8c0,0-0.8-2-3.5-2c-0.7,0-1.5,0.1-2.4,0.4
				c-3.4,1.1-7.2,3.6-11.2,3.6c-1.7,0-3.4-0.4-5.1-1.5l-0.9,5l-0.4,0c0,0-2.6-4.9-0.4-6.5c0,0-3.6-5.5-0.2-10.9l0.9,2.1
				C11.8,8.1,12.5,3.4,16.2,3.4 M16.2,1.8L16.2,1.8c-2,0-3.4,1-4.4,2.2l-0.6-1.5L9.6,5.2c-3,4.7-1.4,9.4-0.4,11.5
				c-1.6,2.6,0.6,6.9,0.9,7.4l0.5,1l1.1-0.1l0.4,0l1.2-0.1l0.2-1.2l0.5-2.9c1.3,0.5,2.6,0.7,3.9,0.7c3.1,0,6-1.3,8.5-2.4
				c1.1-0.5,2.2-1,3.2-1.3c0.7-0.2,1.4-0.4,1.9-0.4c1.6,0,2,1,2,1l0,0l0,0l2.4,5.5l0.4,0.8l0.9,0.1l0.6,0.1l0.8,0.1l0.6-0.6
				c3.4-3.4,3.7-11.1,1.3-13.5c-0.8-0.8-1.9-1.3-3.2-1.3c-0.6,0-1.1,0.1-1.6,0.2c-0.2-0.5-0.4-1-0.8-1.4c-1.2-1.5-3.3-2.2-6.1-2.2
				c-2.7,0-4.9,0.4-6.6,0.7C21,7.2,20,7.4,19.2,7.4c-0.8,0-1.2-0.2-1.5-0.5c-1-1-0.5-2-0.1-2.4L19.8,2l-3.3-0.2
				C16.4,1.8,16.3,1.8,16.2,1.8L16.2,1.8z"/>
		</g>
		<g>
			<path class="st11" d="M61.9,22.8v2H62c0.5-0.8,1.2-1.5,2-1.8c0.8-0.4,1.6-0.6,2.5-0.6c1.1,0,1.9,0.1,2.6,0.4
				c0.7,0.3,1.2,0.7,1.6,1.2c0.4,0.5,0.7,1.1,0.8,1.9c0.2,0.7,0.2,1.6,0.2,2.5v8.9h-4v-8.2c0-1.2-0.2-2.1-0.6-2.7
				c-0.4-0.6-1-0.9-2-0.9c-1.1,0-1.9,0.3-2.4,1s-0.7,1.7-0.7,3.2v7.6h-4V22.8H61.9z"/>
			<path class="st11" d="M79,33.8c0.6,0.6,1.5,0.9,2.6,0.9c0.8,0,1.5-0.2,2.1-0.6c0.6-0.4,0.9-0.8,1.1-1.3h3.5
				c-0.6,1.7-1.4,3-2.6,3.7s-2.6,1.1-4.2,1.1c-1.1,0-2.2-0.2-3.1-0.5c-0.9-0.4-1.7-0.9-2.3-1.6c-0.6-0.7-1.1-1.5-1.5-2.4
				c-0.3-0.9-0.5-2-0.5-3.1c0-1.1,0.2-2.1,0.5-3c0.4-0.9,0.9-1.7,1.5-2.4c0.7-0.7,1.4-1.2,2.3-1.6c0.9-0.4,1.9-0.6,3-0.6
				c1.2,0,2.3,0.2,3.2,0.7c0.9,0.5,1.7,1.1,2.3,1.9c0.6,0.8,1,1.7,1.3,2.7c0.3,1,0.4,2.1,0.3,3.2H78C78.1,32.3,78.4,33.2,79,33.8z
				 M83.5,26.2c-0.5-0.5-1.2-0.8-2.2-0.8c-0.6,0-1.2,0.1-1.6,0.3c-0.4,0.2-0.8,0.5-1,0.8s-0.4,0.7-0.5,1c-0.1,0.4-0.2,0.7-0.2,1h6.5
				C84.3,27.5,84,26.7,83.5,26.2z"/>
			<path class="st11" d="M94.6,22.8v2.7h0.1c0.2-0.4,0.4-0.9,0.8-1.2c0.3-0.4,0.7-0.7,1.1-1c0.4-0.3,0.8-0.5,1.3-0.6
				c0.5-0.1,1-0.2,1.5-0.2c0.3,0,0.6,0,0.9,0.1v3.7c-0.2,0-0.4-0.1-0.7-0.1c-0.3,0-0.5,0-0.8,0c-0.7,0-1.3,0.1-1.8,0.4
				c-0.5,0.2-0.9,0.6-1.2,1c-0.3,0.4-0.5,0.9-0.7,1.5c-0.1,0.6-0.2,1.2-0.2,1.8v6.5h-4V22.8H94.6z"/>
			<path class="st11" d="M111.5,35.4c-0.5,0.8-1.1,1.3-1.8,1.7s-1.6,0.5-2.6,0.5c-1.1,0-2-0.2-2.9-0.6s-1.5-1-2-1.7
				c-0.5-0.7-0.9-1.5-1.2-2.5c-0.3-0.9-0.4-1.9-0.4-2.9c0-1,0.1-1.9,0.4-2.8c0.3-0.9,0.7-1.7,1.2-2.4s1.2-1.2,2-1.7
				c0.8-0.4,1.7-0.6,2.8-0.6c0.9,0,1.7,0.2,2.5,0.5c0.8,0.4,1.4,0.9,1.8,1.6h0.1v-7.3h4v20h-3.8L111.5,35.4L111.5,35.4z M111.3,28.3
				c-0.1-0.6-0.3-1-0.6-1.5s-0.6-0.8-1-1c-0.4-0.3-1-0.4-1.6-0.4s-1.2,0.1-1.7,0.4c-0.4,0.3-0.8,0.6-1.1,1c-0.3,0.4-0.5,0.9-0.6,1.5
				c-0.1,0.6-0.2,1.1-0.2,1.7c0,0.6,0.1,1.1,0.2,1.7c0.1,0.6,0.3,1.1,0.6,1.5c0.3,0.4,0.7,0.8,1.1,1.1s1,0.4,1.6,0.4
				c0.7,0,1.2-0.1,1.6-0.4c0.4-0.3,0.8-0.6,1-1c0.3-0.4,0.4-0.9,0.6-1.5c0.1-0.6,0.2-1.1,0.2-1.7S111.4,28.8,111.3,28.3z"/>
			<path class="st11" d="M120.1,22.8v2.7h0.1c0.4-1,1.1-1.8,2-2.3c0.9-0.6,2-0.8,3.1-0.8c1.1,0,2.1,0.2,2.9,0.6c0.8,0.4,1.5,1,2,1.7
				c0.5,0.7,0.9,1.5,1.2,2.4c0.3,0.9,0.4,1.9,0.4,2.9c0,1-0.1,2-0.4,2.9c-0.3,0.9-0.7,1.7-1.2,2.4c-0.5,0.7-1.2,1.3-2,1.7
				c-0.8,0.4-1.8,0.6-2.9,0.6c-0.5,0-1-0.1-1.6-0.2c-0.5-0.1-1-0.3-1.5-0.6c-0.4-0.3-0.8-0.6-1.2-1s-0.6-0.8-0.8-1.4h-0.1v8.1h-1.8
				V22.8H120.1z M129.8,27.8c-0.2-0.7-0.5-1.4-0.8-2s-0.9-1.1-1.5-1.4c-0.6-0.4-1.3-0.5-2.2-0.5c-1,0-1.8,0.2-2.4,0.5
				s-1.2,0.8-1.6,1.3c-0.4,0.6-0.7,1.2-0.8,2c-0.2,0.7-0.2,1.5-0.2,2.4c0,0.7,0.1,1.5,0.3,2.2c0.2,0.7,0.5,1.4,0.9,2s0.9,1,1.6,1.4
				c0.6,0.4,1.4,0.5,2.4,0.5c0.8,0,1.6-0.2,2.2-0.5c0.6-0.4,1.1-0.8,1.5-1.4s0.7-1.2,0.8-2c0.2-0.7,0.3-1.5,0.3-2.2
				C130,29.3,129.9,28.6,129.8,27.8z"/>
			<path class="st11" d="M136.3,17.3v2.8h-1.8v-2.8H136.3z M136.3,22.8v14.4h-1.8V22.8H136.3z"/>
			<path class="st11" d="M141.5,17.3v20h-1.8v-20H141.5z"/>
			<path class="st11" d="M153.9,23c0.8,0.4,1.6,1,2.1,1.7c0.6,0.7,1,1.5,1.3,2.4c0.3,0.9,0.4,1.9,0.4,3c0,1-0.1,2-0.4,3
				s-0.7,1.7-1.3,2.4c-0.6,0.7-1.3,1.2-2.1,1.6s-1.8,0.6-2.9,0.6c-1.1,0-2.1-0.2-2.9-0.6c-0.8-0.4-1.6-0.9-2.1-1.6
				c-0.6-0.7-1-1.5-1.3-2.4c-0.3-0.9-0.4-1.9-0.4-3c0-1,0.1-2,0.4-3c0.3-0.9,0.7-1.7,1.3-2.4c0.6-0.7,1.3-1.2,2.1-1.7
				c0.8-0.4,1.8-0.6,2.9-0.6C152.1,22.4,153.1,22.6,153.9,23z M148.8,24.4c-0.6,0.4-1.2,0.8-1.6,1.4c-0.4,0.6-0.7,1.2-1,2
				c-0.2,0.7-0.3,1.5-0.3,2.3c0,0.8,0.1,1.5,0.3,2.3c0.2,0.7,0.5,1.4,1,2c0.4,0.6,0.9,1,1.6,1.4c0.6,0.4,1.4,0.5,2.2,0.5
				s1.6-0.2,2.2-0.5c0.6-0.4,1.2-0.8,1.6-1.4c0.4-0.6,0.7-1.2,1-2c0.2-0.7,0.3-1.5,0.3-2.3c0-0.8-0.1-1.5-0.3-2.3
				c-0.2-0.7-0.5-1.4-1-2c-0.4-0.6-0.9-1-1.6-1.4c-0.6-0.4-1.4-0.5-2.2-0.5S149.4,24.1,148.8,24.4z"/>
			<path class="st11" d="M166.2,22.8v1.5h-2.9V34c0,0.6,0.1,1,0.2,1.4s0.6,0.5,1.2,0.5c0.5,0,1,0,1.5-0.1v1.5c-0.3,0-0.5,0-0.8,0
				s-0.5,0-0.8,0c-1.2,0-2-0.2-2.5-0.7s-0.7-1.3-0.7-2.5v-9.9H159v-1.5h2.5v-4.3h1.8v4.3H166.2z"/>
			<path class="st11" d="M177.1,25.6c-0.2-0.4-0.5-0.7-0.8-1c-0.3-0.3-0.7-0.5-1.2-0.6c-0.4-0.1-0.9-0.2-1.4-0.2
				c-0.4,0-0.8,0-1.2,0.1c-0.4,0.1-0.8,0.2-1.1,0.4c-0.3,0.2-0.6,0.5-0.8,0.8c-0.2,0.3-0.3,0.7-0.3,1.2c0,0.4,0.1,0.7,0.3,1
				c0.2,0.3,0.4,0.5,0.7,0.7s0.6,0.3,1,0.5c0.4,0.1,0.7,0.2,1,0.3l2.4,0.5c0.5,0.1,1,0.2,1.5,0.4c0.5,0.2,0.9,0.5,1.3,0.8
				c0.4,0.3,0.7,0.7,0.9,1.2c0.2,0.5,0.4,1,0.4,1.7c0,0.8-0.2,1.5-0.5,2c-0.4,0.6-0.8,1-1.4,1.3c-0.6,0.3-1.2,0.6-1.9,0.7
				s-1.4,0.2-2,0.2c-1.7,0-3.1-0.4-4.1-1.2c-1.1-0.8-1.7-2.1-1.8-3.9h1.8c0.1,1.2,0.5,2.1,1.3,2.7c0.8,0.6,1.8,0.9,3,0.9
				c0.4,0,0.9,0,1.3-0.1c0.5-0.1,0.9-0.3,1.3-0.5c0.4-0.2,0.7-0.5,1-0.9c0.3-0.3,0.4-0.8,0.4-1.3c0-0.4-0.1-0.8-0.3-1.1
				c-0.2-0.3-0.4-0.5-0.7-0.7c-0.3-0.2-0.6-0.4-1-0.5c-0.4-0.1-0.8-0.2-1.2-0.3l-2.3-0.5c-0.6-0.1-1.1-0.3-1.6-0.5
				c-0.5-0.2-0.9-0.4-1.3-0.7c-0.4-0.3-0.6-0.6-0.9-1.1s-0.3-0.9-0.3-1.6c0-0.7,0.2-1.4,0.5-1.9c0.3-0.5,0.8-0.9,1.3-1.3
				s1.1-0.6,1.8-0.7c0.6-0.1,1.3-0.2,1.9-0.2c0.7,0,1.4,0.1,2,0.3c0.6,0.2,1.2,0.5,1.7,0.9c0.5,0.4,0.9,0.9,1.1,1.5
				c0.3,0.6,0.4,1.3,0.5,2h-1.8C177.4,26.5,177.3,26,177.1,25.6z"/>
		</g>
	</g>
</g>
</svg>
